<?xml version="1.0" encoding="UTF-8"?>
<svg width="21px" height="20px" viewBox="0 0 21 20" version="1.1" xmlns="http://www.w3.org/2000/svg" xmlns:xlink="http://www.w3.org/1999/xlink">
    <!-- Generator: sketchtool 52.5 (67469) - http://www.bohemiancoding.com/sketch -->
    <title>F89A15A7-74A2-4220-9AB3-03085C510233</title>
    <desc>Created with sketchtool.</desc>
    <defs>
        <path d="M0,5.60974097 C0,8.6994113 2.53064608,11.2358006 5.65057787,11.2358006 C8.77050966,11.2358006 11.3019373,8.71650706 11.3019373,5.60974097 C11.3019373,2.5021978 8.77050966,0 5.65057787,0 C2.53064608,0 0,2.51929356 0,5.60974097 Z M1.4904083,5.60974097 C1.4904083,3.33056515 3.36221106,1.46635008 5.65057787,1.46635008 C7.93894468,1.46635008 9.81074744,3.33056515 9.81074744,5.60974097 C9.81074744,7.88813972 7.93894468,9.75157771 5.65057787,9.75157771 C3.36299261,9.75157771 1.4904083,7.88813972 1.4904083,5.60974097 Z" id="path-1"></path>
        <path d="M6.92544828,0 C3.11565517,0 0,3.05703297 0,6.83353846 C0,7.23389011 0.321655172,7.55156044 0.727517241,7.55156044 L19.8955862,7.55156044 C20.3014483,7.55156044 20.6231034,7.23389011 20.6231034,6.83353846 C20.6231034,3.07443956 17.5241379,0 13.6984138,0 L6.92544828,0 Z M6.92544828,1.43676923 L13.6984138,1.43676923 C16.4749655,1.43676923 18.7606897,3.47551648 19.1164828,6.11479121 L1.50662069,6.11479121 C1.86241379,3.4921978 4.14813793,1.43676923 6.92544828,1.43676923 Z" id="path-3"></path>
    </defs>
    <g id="Landing-Ofertas" stroke="none" stroke-width="1" fill="none" fill-rule="evenodd">
        <g id="Desktop-Landing-Ofertas" transform="translate(-1156.000000, -63.000000)">
            <g id="Header">
                <g id="Mi-cuenta">
                    <g transform="translate(1156.000000, 63.000000)">
                        <g id="account">
                            <g id="Group-3" transform="translate(4.000000, 0.000000)">
                                <mask id="mask-2" fill="white">
                                    <use xlink:href="#path-1"></use>
                                </mask>
                                <g id="Clip-2"></g>
                                <polygon id="Fill-1" fill="#808080" mask="url(#mask-2)" points="-2.70924119 13.1265385 13.1123768 13.1265385 13.1123768 -2.60467033 -2.70924119 -2.60467033"></polygon>
                            </g>
                            <g id="Group-6" transform="translate(0.000000, 12.000000)">
                                <mask id="mask-4" fill="white">
                                    <use xlink:href="#path-3"></use>
                                </mask>
                                <g id="Clip-5"></g>
                                <polygon id="Fill-4" fill="#808080" mask="url(#mask-4)" points="-2.49524138 9.97035165 22.5157241 9.97035165 22.5157241 -1.7761978 -2.49524138 -1.7761978"></polygon>
                            </g>
                        </g>
                    </g>
                </g>
            </g>
        </g>
    </g>
</svg>