<?xml version="1.0" encoding="UTF-8"?>
<svg width="19px" height="13px" viewBox="0 0 19 13" version="1.1" xmlns="http://www.w3.org/2000/svg" xmlns:xlink="http://www.w3.org/1999/xlink">
    <!-- Generator: sketchtool 52.5 (67469) - http://www.bohemiancoding.com/sketch -->
    <title>84037589-009F-49A6-B71C-8D90DB69AE10</title>
    <desc>Created with sketchtool.</desc>
    <defs>
        <path d="M1.05425056,0 C0.471412854,0 0,0.440970539 0,0.981972203 C0,1.52380746 0.471412854,1.96311081 1.05425056,1.96311081 L17.124191,1.96311081 C17.7060763,1.96311081 18.1774892,1.52380746 18.1774892,0.981972203 C18.1774892,0.440970539 17.7060763,0 17.124191,0 L1.05425056,0 Z M1.78691773,5.42857143 C0.799028252,5.42857143 0,5.87037556 0,6.41054363 C0,6.95321248 0.799028252,7.39251583 1.78691773,7.39251583 L16.3921856,7.39251583 C17.3800751,7.39251583 18.1774892,6.95321248 18.1774892,6.41054363 C18.1774892,5.87037556 17.3800751,5.42857143 16.3921856,5.42857143 L1.78691773,5.42857143 Z M1.2210984,10.8571429 C0.546019609,10.8571429 0,11.2981134 0,11.8382815 C0,12.3817839 0.546019609,12.8202537 1.2210984,12.8202537 L16.9563908,12.8202537 C17.6314696,12.8202537 18.1774892,12.3809503 18.1774892,11.8382815 C18.1774892,11.2981134 17.6314696,10.8571429 16.9563908,10.8571429 L1.2210984,10.8571429 Z" id="path-1"></path>
    </defs>
    <g id="Landing-Ofertas" stroke="none" stroke-width="1" fill="none" fill-rule="evenodd">
        <g id="Mobile-Landing-Ofertas" transform="translate(-9.000000, -44.000000)">
            <g id="Header-Busca">
                <g id="Menu" transform="translate(9.000000, 44.000000)">
                    <g id="menu">
                        <mask id="mask-2" fill="white">
                            <use xlink:href="#path-1"></use>
                        </mask>
                        <g id="Clip-2"></g>
                        <polygon id="Fill-1" fill="#616161" mask="url(#mask-2)" points="-2.0974026 15.1753247 18.1774892 15.1753247 18.1774892 -3.7012987 -2.0974026 -3.7012987"></polygon>
                    </g>
                </g>
            </g>
        </g>
    </g>
</svg>