<?xml version="1.0" encoding="UTF-8"?>
<svg width="11px" height="11px" viewBox="0 0 11 11" version="1.1" xmlns="http://www.w3.org/2000/svg" xmlns:xlink="http://www.w3.org/1999/xlink">
    <!-- Generator: sketchtool 52.5 (67469) - http://www.bohemiancoding.com/sketch -->
    <title>23960074-597B-4E17-A9EB-9B6DEE8E7B66</title>
    <desc>Created with sketchtool.</desc>
    <g id="Page-1" stroke="none" stroke-width="1" fill="none" fill-rule="evenodd">
        <g id="Desktop-HD-Home-Full-Ideal-2" transform="translate(-131.000000, -3531.000000)" fill="#616161">
            <g id="Footer" transform="translate(0.000000, 3328.000000)">
                <g transform="translate(-1.000000, 76.000000)" id="telephone">
                    <path d="M143.000013,135.687497 C143.000013,135.968748 142.875013,136.515623 142.757825,136.773436 C142.593763,137.156249 142.156262,137.406249 141.804699,137.601562 C141.343761,137.851562 140.875011,138 140.351572,138 C139.625009,138 138.968758,137.703125 138.304695,137.460937 C137.828132,137.289062 137.367194,137.078124 136.937506,136.812499 C135.609379,135.992185 134.007815,134.390621 133.187501,133.062494 C132.921876,132.632806 132.710938,132.171868 132.539063,131.695305 C132.296875,131.031242 132,130.374991 132,129.648428 C132,129.124989 132.148438,128.656239 132.398438,128.195301 C132.593751,127.843738 132.843751,127.406237 133.226564,127.242175 C133.484377,127.124987 134.031252,126.999987 134.312503,126.999987 C134.36719,126.999987 134.421878,126.999987 134.476565,127.023424 C134.640628,127.078112 134.812503,127.460925 134.890628,127.617175 C135.140629,128.062488 135.382817,128.515614 135.640629,128.953114 C135.765629,129.156239 136.000005,129.40624 136.000005,129.648428 C136.000005,130.124991 134.585941,130.820304 134.585941,131.242179 C134.585941,131.453117 134.781253,131.726555 134.890628,131.914055 C135.679692,133.335932 136.664068,134.320308 138.085945,135.109372 C138.273445,135.218747 138.546883,135.414059 138.757821,135.414059 C139.179696,135.414059 139.875009,133.999995 140.351572,133.999995 C140.59376,133.999995 140.843761,134.234371 141.046886,134.359371 C141.484386,134.617183 141.937512,134.859371 142.382825,135.109372 C142.539075,135.187497 142.921888,135.359372 142.976576,135.523435 C143.000013,135.578122 143.000013,135.63281 143.000013,135.687497 Z"></path>
                </g>
            </g>
        </g>
    </g>
</svg>